<svg xmlns="http://www.w3.org/2000/svg" viewBox="0 0 228.4 64" role="img" aria-label="Entit Kube"><title>Entit Kube</title><rect x="12" y="12" width="11" height="40" rx="3" fill="#2C3A5A"/><rect x="26" y="12" width="26" height="11" rx="3" fill="#3A63F0"/><rect x="26" y="26.5" width="19" height="11" rx="3" fill="#2C3A5A"/><rect x="26" y="41" width="26" height="11" rx="3" fill="#2C3A5A"/><g transform="translate(78,52) scale(0.057143,-0.057143)" fill="#2C3A5A"><path transform="translate(0,0)" d="M72.99951171875 0V700H181.201171875V408.700927734375H197.101318359375L458.0489501953125 700H599.40087890625L282.902587890625 354.6500244140625L610.100830078125 0H465.1488037109375L197.101318359375 297.299072265625H181.201171875V0Z"/><path transform="translate(618,0)" d="M264.599609375 -8.699951171875Q208.699462890625 -8.699951171875 164.8494873046875 16.22515869140625Q120.99951171875 41.1502685546875 96.12457275390625 87.27532958984375Q71.2496337890625 133.400390625 71.2496337890625 196.500244140625V492.500244140625H174.1512451171875V204.400390625Q174.1512451171875 140.3509521484375 206.02593994140625 109.72613525390625Q237.900634765625 79.101318359375 294.500244140625 79.101318359375Q358.4498291015625 79.101318359375 396.7493896484375 121.4510498046875Q435.0489501953125 163.80078125 435.0489501953125 243.6500244140625V492.500244140625H537.9505615234375V0H437.0489501953125V73.7493896484375H421.1488037109375Q407.0489501953125 43.8497314453125 371.2491455078125 17.57489013671875Q335.4493408203125 -8.699951171875 264.599609375 -8.699951171875Z"/><path transform="translate(1232,0)" d="M361.00048828125 -14Q289.4508056640625 -14 250.47601318359375 11.97479248046875Q211.501220703125 37.9495849609375 193.101318359375 70.1492919921875H177.201171875V0H76.299560546875V700H179.201171875V425.700927734375H195.101318359375Q206.80126953125 446.1507568359375 227.0511474609375 464.42559814453125Q247.301025390625 482.700439453125 280.2508544921875 494.600341796875Q313.20068359375 506.500244140625 361.00048828125 506.500244140625Q423.100341796875 506.500244140625 474.80029296875 476.6502685546875Q526.500244140625 446.80029296875 557.500244140625 389.97528076171875Q588.500244140625 333.1502685546875 588.500244140625 253.5501708984375V238.9500732421875Q588.500244140625 159.3499755859375 557.3252563476562 102.52496337890625Q526.1502685546875 45.699951171875 474.4503173828125 15.8499755859375Q422.7503662109375 -14 361.00048828125 -14ZM331.39990234375 76.4013671875Q398.1492919921875 76.4013671875 441.52398681640625 119.32598876953125Q484.898681640625 162.2506103515625 484.898681640625 241.60009765625V250.900146484375Q484.898681640625 330.2496337890625 441.8489990234375 373.17425537109375Q398.79931640625 416.098876953125 331.39990234375 416.098876953125Q265.00048828125 416.098876953125 221.4508056640625 373.17425537109375Q177.901123046875 330.2496337890625 177.901123046875 250.900146484375V241.60009765625Q177.901123046875 162.2506103515625 221.4508056640625 119.32598876953125Q265.00048828125 76.4013671875 331.39990234375 76.4013671875Z"/><path transform="translate(1873,0)" d="M301.599609375 -14Q227.2496337890625 -14 171.099609375 17.5Q114.9495849609375 49 83.62457275390625 106.32501220703125Q52.299560546875 163.6500244140625 52.299560546875 240.2501220703125V252.2501220703125Q52.299560546875 329.2001953125 83.299560546875 386.3502197265625Q114.299560546875 443.500244140625 169.77459716796875 475.000244140625Q225.2496337890625 506.500244140625 297.8497314453125 506.500244140625Q369.099853515625 506.500244140625 422.57489013671875 475.400146484375Q476.0499267578125 444.300048828125 506.0499267578125 388.199951171875Q536.0499267578125 332.099853515625 536.0499267578125 256.7998046875V217.6495361328125H156.501220703125Q158.8511962890625 152.6505126953125 200.62579345703125 114.52593994140625Q242.400390625 76.4013671875 304.19970703125 76.4013671875Q362.4493408203125 76.4013671875 391.82403564453125 102.201171875Q421.19873046875 128.0009765625 436.6485595703125 161.9505615234375L522.499755859375 118.4498291015625Q508.1497802734375 90 481.6497802734375 59.1500244140625Q455.1497802734375 28.300048828125 411.8497314453125 7.1500244140625Q368.5496826171875 -14 301.599609375 -14ZM157.501220703125 296.9505615234375H431.498291015625Q427.498291015625 352.5496826171875 391.22369384765625 384.32427978515625Q354.9490966796875 416.098876953125 297.19970703125 416.098876953125Q238.500244140625 416.098876953125 202.20068359375 384.32427978515625Q165.901123046875 352.5496826171875 157.501220703125 296.9505615234375Z"/></g></svg>
